<svg width="170" height="67" viewBox="0 0 170 67" fill="none" xmlns="http://www.w3.org/2000/svg">
<path d="M33.6448 0.78125L34.703 4.19735H38.1252L35.3571 6.3083L36.414 9.72441L33.6448 7.61119L30.8768 9.72441L31.9339 6.3083L29.1645 4.19735H32.5878L33.6448 0.78125ZM33.6448 56.9927L34.703 60.4088H38.1252L35.3571 62.5195L36.414 65.9345L33.6448 63.8237L30.8768 65.9345L31.9339 62.5195L29.1645 60.4088H32.5878L33.6448 56.9927ZM47.7264 5.35702L48.7848 8.7718H52.2081L49.4376 10.8839L50.4958 14.2989L47.7264 12.1881L44.9572 14.2989L46.0154 10.8839L43.2449 8.7718H46.6682L47.7264 5.35702ZM59.2489 15.58L60.3058 18.995H63.7291L60.9599 21.1057L62.0181 24.522L59.2489 22.4111L56.4795 24.522L57.5377 21.1057L54.7685 18.995H58.1907L59.2489 15.58ZM59.2489 42.9393L60.3058 46.3565H63.7291L60.9599 48.4674L62.0181 51.8822L59.2489 49.7715L56.4795 51.8822L57.5377 48.4674L54.7685 46.3565H58.1918L59.2489 42.9393ZM8.04078 15.58L9.099 18.995H12.5211L9.75309 21.1057L10.8102 24.522L8.04078 22.4111L5.27159 24.522L6.32981 21.1057L3.56061 18.995H6.98389L8.04078 15.58ZM61.8093 28.8858L62.8664 32.3019H66.2897L63.5205 34.4127L64.5787 37.8288L61.8093 35.7192L59.0401 37.8288L60.0983 34.4127L57.3291 32.3019H60.7511L61.8093 28.8858ZM5.4815 28.8858L6.53858 32.3019H9.96186L7.19021 34.4127L8.24956 37.8288L5.48036 35.7192L2.70984 37.8288L3.76806 34.4127L1 32.3019H4.42328L5.4815 28.8858ZM8.04211 42.9393L9.099 46.3565H12.5211L9.75309 48.4674L10.8102 51.8822L8.04211 49.7715L5.27272 51.8822L6.32981 48.4674L3.56061 46.3565H6.98389L8.04211 42.9393ZM50.2882 54.4375L51.3452 57.8523H54.7685L51.998 59.9644L53.0562 63.3794L50.2882 61.2686L47.5178 63.3794L48.576 59.9644L45.8067 57.8523H49.2299L50.2882 54.4375ZM19.5633 5.35702L20.6202 8.7718H24.0434L21.2742 10.8839L22.3325 14.2989L19.5633 12.1881L16.7939 14.2989L17.8521 10.8839L15.0816 8.7718H18.5049L19.5633 5.35702ZM17.0026 54.4375L18.0597 57.8536H21.483L18.7136 59.9644L19.7718 63.3794L17.0026 61.2698L14.2335 63.3794L15.2917 59.9644L12.5211 57.8536H15.9444L17.0026 54.4375Z" fill="white" stroke="#455066" stroke-width="0.223422"/>
<path d="M42.7655 29.5437L32.6995 39.8029C32.4099 40.0992 31.838 40.3399 31.4278 40.3399H30.5578C30.1474 40.3399 29.5744 40.0979 29.2848 39.8029L24.545 34.9612C24.2554 34.6611 24.2559 34.1861 24.5461 33.8871L26.4117 31.9892C26.5507 31.8475 26.741 31.7676 26.9395 31.7676C27.1383 31.7676 27.3286 31.8475 27.4676 31.9892L30.4962 35.0622C30.7858 35.3572 31.2612 35.3572 31.552 35.0622L39.8514 26.6009C39.9905 26.459 40.1807 26.3789 40.3795 26.3783C40.5783 26.3779 40.7689 26.4573 40.9085 26.5984L42.7631 28.4721C43.0535 28.7702 43.0544 29.2442 42.7655 29.5437ZM85.4762 23.5928C85.4762 30.2095 90.5562 34.3602 96.7946 34.3602C100.745 34.3602 103.786 32.7684 106.044 30.3022V22.1564H95.9476V26.6201H100.745V28.3685C99.8982 29.0547 98.4249 29.6159 96.7946 29.6159C93.3773 29.6159 90.9628 26.9946 90.9628 23.5928C90.9628 20.19 93.3762 17.5685 96.7946 17.5685C98.7699 17.5685 100.369 18.6607 101.216 20.0347L105.73 17.6624C104.194 15.0712 101.371 12.8242 96.7946 12.8242C90.5562 12.8242 85.4762 16.976 85.4762 23.5928ZM109.211 33.9857V13.1675H117.99C124.573 13.1675 129.308 17.1002 129.308 23.5615C129.308 30.0217 124.573 33.9857 118.021 33.9857H109.21H109.211ZM114.603 29.3041H117.99C121.658 29.3041 123.789 26.6513 123.789 23.5604C123.789 20.3464 121.846 17.8491 118.021 17.8491H114.603V29.3041ZM132.004 33.9857V13.1675H142.475C147.179 13.1675 149.75 16.3199 149.75 20.0972C149.75 23.8421 147.179 26.9319 142.475 26.9319H137.396V33.9857H132.004ZM144.263 20.0658C144.263 18.6294 143.197 17.6938 141.753 17.6938H137.397V22.3756H141.753C143.197 22.3756 144.263 21.47 144.263 20.0658ZM163.827 33.9857L160.315 26.9319H157.556V33.9857H152.163V13.1675H162.637C167.275 13.1675 169.909 16.226 169.909 20.0972C169.909 23.7168 167.683 25.6532 165.739 26.3396L170.003 33.9857H163.827ZM164.422 20.0347C164.422 18.598 163.23 17.6938 161.82 17.6938H157.556V22.3756H161.82C163.232 22.3756 164.422 21.47 164.422 20.0347ZM88.3937 58.5761V53.4024H91.3112C92.042 53.4024 92.5685 53.5631 92.8907 53.8845C93.2128 54.2059 93.4233 54.7128 93.5225 55.4051C93.5967 55.9367 93.6525 56.4929 93.6897 57.0741C93.7269 57.6551 93.8259 58.1557 93.987 58.5761H96.9044C96.7682 58.3906 96.6659 58.165 96.5979 57.8992C96.5297 57.6335 96.4802 57.3522 96.4492 57.0556C96.4182 56.7588 96.3965 56.4684 96.3842 56.184C96.3718 55.8997 96.3593 55.6524 96.347 55.4423C96.3223 55.1084 96.2758 54.7746 96.2076 54.4409C96.1396 54.1071 96.0311 53.801 95.8824 53.5229C95.7337 53.2448 95.5418 53.0037 95.3064 52.7997C95.071 52.5958 94.7736 52.4443 94.4144 52.3455V52.3083C95.1577 52.0116 95.6935 51.579 96.0219 51.0103C96.35 50.4416 96.5142 49.7679 96.5142 48.9891C96.5142 48.4822 96.4245 48.0093 96.2448 47.5704C96.0651 47.1315 95.805 46.7453 95.4643 46.4115C95.1237 46.0776 94.7148 45.815 94.238 45.6234C93.7609 45.4316 93.2251 45.3359 92.6305 45.3359H85.4762V58.5761H88.3937ZM91.5899 51.3254H88.3937V47.5981H91.5899C92.2589 47.5981 92.7605 47.7434 93.0951 48.034C93.4295 48.3246 93.5967 48.7913 93.5967 49.434C93.5967 50.1017 93.4295 50.5837 93.0951 50.8805C92.7605 51.1771 92.2589 51.3254 91.5899 51.3254ZM109.447 58.5761V56.1283H102.293V52.8832H108.722V50.6209H102.293V47.7837H109.298V45.3359H99.3754V58.5761H109.447ZM113.442 58.5761L114.483 55.6276H119.444L120.448 58.5761H123.477L118.515 45.3359H115.523L110.506 58.5761H113.442ZM118.682 53.4581H115.244L116.972 48.5997H117.01L118.682 53.4581ZM130.835 58.5761C131.85 58.5761 132.733 58.4061 133.483 58.0662C134.232 57.7261 134.858 57.2594 135.359 56.666C135.861 56.0727 136.236 55.368 136.484 54.552C136.732 53.7362 136.855 52.8461 136.855 51.8818C136.855 50.7815 136.704 49.8234 136.4 49.0076C136.096 48.1916 135.675 47.5116 135.137 46.9677C134.597 46.4237 133.959 46.0158 133.222 45.7438C132.485 45.4719 131.689 45.3359 130.835 45.3359H125.111V58.5761H130.835ZM130.63 56.1283H128.029V47.7837H130.11C130.828 47.7837 131.432 47.8857 131.922 48.0896C132.411 48.2936 132.804 48.5872 133.102 48.9704C133.399 49.3537 133.613 49.8141 133.743 50.352C133.873 50.8897 133.938 51.4924 133.938 52.1599C133.938 52.8894 133.845 53.5074 133.659 54.0143C133.473 54.5212 133.225 54.9322 132.916 55.2475C132.606 55.5628 132.253 55.7884 131.857 55.9242C131.46 56.0603 131.051 56.1283 130.63 56.1283ZM145.719 58.5761V53.4951L150.643 45.3359H147.391L144.306 50.5652L141.203 45.3359H137.933L142.801 53.4209V58.5761H145.719Z" fill="white"/>
</svg>
