<svg width="140" height="74" viewBox="0 0 140 74" fill="none" xmlns="http://www.w3.org/2000/svg">
<path fill-rule="evenodd" clip-rule="evenodd" d="M42.1747 0.0943549C40.5845 0.514825 39.4724 1.86996 39.3764 3.50386C39.315 4.54853 39.6652 5.5104 40.3813 6.26434C41.11 7.03144 41.9037 7.3996 42.9219 7.44279C43.531 7.46865 43.9874 7.39556 44.5046 7.18899C46.2633 6.48661 47.225 4.52611 46.7087 2.6964C46.3754 1.5157 45.4413 0.55055 44.2503 0.156387C43.8768 0.0327718 43.773 0.0178234 43.2028 0.00452023C42.6451 -0.00848401 42.523 0.00227895 42.1747 0.0943549ZM31.6142 2.45843C30.1954 2.63063 29.0785 3.00596 25.9835 4.35078C24.7028 4.90727 22.3144 6.07391 21.6895 6.44805C20.9765 6.87509 20.73 7.17254 20.7801 7.54563C20.8131 7.79152 20.9512 7.95235 21.3718 8.23486C22.1935 8.78656 22.4908 8.86429 24.3159 9.00345C25.152 9.06713 25.2774 9.06698 25.9091 9.00061C26.8695 8.89987 27.7671 8.93156 28.2801 9.08417C29.2025 9.35875 29.9542 9.7154 33.0327 11.3387C33.5489 11.6109 34.3542 12.0583 34.8224 12.333C36.8581 13.5274 37.1458 13.6696 38.9471 14.369C40.2366 14.8699 40.7206 15.1018 41.1496 15.4246L41.4665 15.6628L41.6909 15.5207C42.2758 15.15 42.9846 14.2845 42.9846 13.9409C42.9846 13.7104 42.6801 13.4877 41.4569 12.8239C41.1809 12.6739 40.6407 12.3539 40.2565 12.1125C38.7591 11.1716 38.5661 11.0151 37.9586 10.2475C37.3077 9.42542 37.1104 9.02513 36.8419 7.9821C36.6983 7.42396 36.6871 7.32875 36.6536 6.38467C36.5904 4.60473 36.4679 4.19233 35.8267 3.59847C35.289 3.10087 34.7959 2.82943 34.0794 2.6372C33.128 2.38175 32.5759 2.34169 31.6142 2.45843ZM53.0892 2.45141C52.1008 2.64274 51.4585 2.89639 50.9065 3.31358C49.9707 4.02089 49.8166 4.4158 49.7508 6.27555C49.7164 7.24564 49.7007 7.39362 49.5819 7.86865C49.327 8.88761 49.1309 9.32407 48.6274 9.99342C48.2018 10.5593 47.7199 11.0666 47.3755 11.3116C46.8947 11.6536 45.4622 12.5382 44.8615 12.8642C43.5733 13.5632 43.421 13.6827 43.421 13.9957C43.421 14.1449 43.678 14.5494 44.0361 14.964C44.2798 15.2459 44.8806 15.6802 44.9596 15.6314C44.9842 15.6162 45.1244 15.5132 45.2711 15.4024C45.6796 15.0942 46.0316 14.928 47.5458 14.3288C49.154 13.6925 49.7484 13.4049 51.0813 12.6191C52.2416 11.9349 52.6219 11.7248 54.3107 10.8344C56.2937 9.78864 57.2729 9.33857 58.1122 9.08731C58.6378 8.92991 59.4877 8.89837 60.4741 8.99957C61.1156 9.06533 61.2488 9.06563 62.064 9.00375C63.1794 8.919 63.5682 8.86938 63.9725 8.76056C64.3673 8.65428 64.4596 8.60809 64.9949 8.24966C65.4867 7.92036 65.6112 7.75878 65.6112 7.45012C65.6112 7.02501 65.2903 6.75058 63.9794 6.05418C62.9256 5.49455 61.9337 5.02132 60.5098 4.39891C57.4593 3.06545 56.435 2.70626 55.097 2.50088C54.463 2.40358 53.4637 2.37891 53.0892 2.45141ZM19.5236 7.49705C19.4515 7.51649 19.1668 7.58524 18.8907 7.64997C18.6146 7.71469 17.9468 7.91184 17.4067 8.08792C15.7121 8.64023 15.3549 8.72498 10.9904 9.60837C6.88898 10.4387 6.08661 10.5681 2.18294 11.0291C1.00001 11.1689 0.0200546 11.2952 0.00540617 11.3097C-0.0460129 11.3611 0.278197 11.8348 0.602107 12.1817C1.43871 13.0778 2.14901 13.438 3.70788 13.7563C4.68618 13.956 5.23535 14.0108 6.48555 14.0334C8.1918 14.0643 9.37683 13.9794 11.5578 13.6702C14.5074 13.2518 15.3667 13.0493 18.5828 12.0149C20.6549 11.3484 21.6362 11.0169 22.9583 10.5366C23.88 10.2018 25.4155 9.5861 25.4734 9.52826C25.5229 9.47878 25.4507 9.47116 25.2634 9.50628C25.1553 9.52646 24.7724 9.56682 24.4123 9.59582C23.8085 9.64455 23.6961 9.64111 22.9718 9.55172C22.1199 9.44649 21.7803 9.35292 21.1605 9.05248C20.6363 8.79837 20.2485 8.40421 19.984 7.85639C19.7826 7.43936 19.7714 7.43054 19.5236 7.49705ZM66.4046 7.86072C65.9251 8.85981 65.0432 9.35307 63.377 9.55411C62.6009 9.64769 62.5586 9.64843 61.828 9.58147C61.4149 9.54365 61.0424 9.49911 61.0004 9.48267C60.9582 9.46593 60.924 9.4722 60.924 9.49672C60.924 9.54141 61.8234 9.93692 62.5827 10.2262C64.8442 11.0877 69.454 12.5896 71.0722 12.9922C72.1378 13.2572 73.9814 13.5723 75.8082 13.8016C77.3301 13.9926 77.8208 14.0223 79.4528 14.0228C81.1658 14.0231 81.5339 13.9914 82.7701 13.7367C84.2258 13.4367 85.0099 13.0376 85.7824 12.2034C86.0504 11.914 86.4398 11.3493 86.3991 11.3086C86.3861 11.2956 85.4071 11.1705 84.2235 11.0308C80.3081 10.5681 79.5715 10.4504 75.6264 9.65576C71.209 8.76594 70.7187 8.65069 69.1171 8.12589C68.2959 7.85684 66.8128 7.454 66.6429 7.454C66.6192 7.454 66.5119 7.63696 66.4046 7.86072ZM41.5623 7.9525C41.3395 8.04966 41.2386 8.21692 41.2386 8.48986C41.2386 8.74591 41.3179 8.92767 41.4728 9.02647C41.527 9.06115 41.7348 9.09373 41.9698 9.1045L42.3735 9.12318L42.3732 9.28162C42.3732 9.36877 42.3341 10.0882 42.2865 10.8804C42.239 11.6726 42.1997 12.4142 42.1994 12.5282L42.1989 12.7355H43.0911C43.5819 12.7355 43.994 12.7182 44.007 12.6971C44.0288 12.6618 43.8919 10.0112 43.8358 9.38551L43.8115 9.11272H44.1633C44.7473 9.11272 44.9545 8.97132 44.9812 8.55458C45.0007 8.25145 44.8942 8.04891 44.6654 7.9534C44.4539 7.86491 41.7652 7.86431 41.5623 7.9525ZM26.6741 9.55068C26.479 9.57115 26.3341 9.62078 26.1504 9.7299C26.0106 9.81285 25.8176 9.91255 25.7217 9.95142C25.6257 9.99028 25.0967 10.2306 24.5462 10.4855C23.4432 10.9962 21.586 11.7152 19.6225 12.3917C16.5746 13.4418 15.8266 13.6715 14.5914 13.9376C13.2229 14.2322 12.7472 14.3184 11.4487 14.5074C10.1075 14.7024 9.99804 14.7117 8.69881 14.7407C7.95458 14.7575 7.3114 14.7866 7.2694 14.8056C7.01798 14.9189 7.33053 15.1516 8.20525 15.5026C9.01211 15.8263 9.24933 15.8951 10.1735 16.0731C12.3723 16.4966 14.7957 16.5483 17.1447 16.222C18.7669 15.9966 20.3599 15.6249 21.8806 15.1168C24.4706 14.2515 26.5986 13.3505 28.1224 12.4742C28.3624 12.3363 28.8043 12.0944 29.1044 11.9369C29.6228 11.6647 30.4137 11.0695 30.4485 10.9252C30.467 10.8486 29.8208 10.352 29.3524 10.0827C28.9016 9.82347 28.2422 9.59253 27.8823 9.56772C27.333 9.52975 26.9281 9.52407 26.6741 9.55068ZM58.7853 9.55098C58.1946 9.58491 57.8089 9.68685 57.2892 9.94663C56.9347 10.1239 56.3746 10.4979 56.1054 10.7372L55.8916 10.9272L56.3357 11.3019C56.6499 11.5671 56.9294 11.7542 57.2915 11.9415C57.5729 12.0873 58.0487 12.346 58.3488 12.5167C59.5436 13.1965 60.8853 13.8002 62.6918 14.4711C64.8233 15.2624 65.9463 15.6026 67.4002 15.897C69.6681 16.3565 71.3613 16.5017 73.3202 16.405C75.4077 16.3018 76.9201 16.021 78.2407 15.4915C78.6235 15.338 79.0552 15.1074 79.1443 15.0087C79.2239 14.9204 79.2245 14.9111 79.1538 14.8404C79.0875 14.774 78.9192 14.7624 77.6727 14.7374C76.7095 14.7181 76.1427 14.6878 75.8736 14.6409C75.6575 14.6033 75.1665 14.531 74.7823 14.4803C73.6771 14.3341 72.9136 14.1905 71.2905 13.8231C70.4866 13.641 69.4891 13.3298 67.4629 12.6282C64.2767 11.5251 63.158 11.0943 61.5226 10.3402C61.0477 10.1212 60.6463 9.942 60.6304 9.942C60.6147 9.942 60.4687 9.86293 60.3062 9.76637C60.0757 9.62945 59.9404 9.58177 59.6926 9.54948C59.5176 9.52676 59.3647 9.51077 59.3527 9.51391C59.3408 9.51705 59.0853 9.53364 58.7853 9.55098ZM31.2432 11.3281C31.1831 11.3678 30.9769 11.5312 30.7848 11.6914C30.2368 12.1484 29.9104 12.3375 28.0857 13.2551C26.0973 14.2551 24.9994 14.7585 23.9447 15.1539C22.0573 15.8613 19.3852 16.5455 17.3631 16.8387C17.0149 16.8893 16.7148 16.9459 16.696 16.9646C16.5229 17.1362 17.4487 17.5827 18.5562 17.8616C19.7475 18.1616 20.1638 18.2093 21.5969 18.2097C22.8956 18.21 23.3683 18.1741 24.4777 17.9918C25.3242 17.8525 27.1995 17.1529 29.4754 16.1272C31.0491 15.4181 34.8424 13.475 35.0339 13.2801C35.0807 13.2324 34.6604 12.8853 34.1097 12.5168C33.5055 12.1127 32.7003 11.6919 32.2429 11.5415C32.0652 11.4829 31.8159 11.3938 31.689 11.3433C31.4163 11.2348 31.386 11.2338 31.2432 11.3281ZM54.3392 11.4687C53.6769 11.7083 53.1102 11.9868 52.4645 12.3896C52.0209 12.6666 51.4082 13.1481 51.3768 13.2445C51.3434 13.347 53.3962 14.45 55.4899 15.4546C58.2185 16.764 60.6212 17.7327 61.666 17.945C62.631 18.141 63.4447 18.2102 64.7868 18.2106C66.2441 18.2111 66.5822 18.1717 67.8415 17.8556C68.9182 17.5854 69.8784 17.1321 69.7159 16.9707C69.6938 16.9487 69.3906 16.8893 69.0427 16.8387C67.7354 16.6489 66.0753 16.2866 64.7432 15.9003C62.4507 15.2356 61.2693 14.7485 58.1741 13.1922C56.5182 12.3594 56.158 12.1503 55.6731 11.7399C55.3075 11.4302 55.044 11.2494 54.9661 11.2548C54.942 11.2565 54.66 11.3527 54.3392 11.4687ZM37.0702 15.118C36.3717 15.212 35.7813 15.3416 34.787 15.6192C32.9619 16.1284 32.4574 16.3712 31.4408 17.2284C30.5706 17.9625 29.9933 18.6411 29.7128 19.2599C29.1947 20.4023 29.014 22.6122 29.3452 23.7549C29.6126 24.6776 30.1134 25.8105 30.5029 26.374C31.2984 27.5246 33.3562 28.8038 35.3461 29.3847C36.3419 29.6753 37.5086 29.899 38.9908 30.0835C40.1643 30.2297 40.7305 30.2723 42.1989 30.3252C43.7509 30.3809 45.9645 30.527 46.5419 30.6114C47.4377 30.7427 48.5761 31.1374 49.3088 31.5712C49.9859 31.9719 50.5967 32.651 50.8464 33.2806C50.9333 33.4998 50.947 33.6131 50.9487 34.1232C50.9503 34.6796 50.9439 34.7248 50.8334 34.9339C50.5423 35.4858 49.8082 35.9339 47.9561 36.6901C47.6103 36.8312 47.2491 36.9875 47.1529 37.0374L46.9784 37.1282L47.2184 37.2345C47.3505 37.2929 47.6647 37.407 47.9168 37.4878C48.1689 37.5688 48.6115 37.7533 48.9004 37.8978C49.4656 38.1806 50.7382 38.9281 50.8813 39.0613C50.9293 39.1062 50.9905 39.1428 51.0174 39.1428C51.0856 39.1428 52.0654 38.4848 52.4345 38.1912C53.3748 37.4433 54.1875 36.2512 54.355 35.3742C54.5083 34.572 54.3652 32.9677 54.0669 32.1429C53.6356 30.9509 52.5328 29.5359 51.4974 28.8461C50.5231 28.1973 49.216 27.649 47.9604 27.3624C47.054 27.1557 44.9893 26.8835 43.4647 26.7699C42.9485 26.7315 42.1335 26.6704 41.6533 26.6344C39.1139 26.4432 37.4702 26.1687 36.4373 25.7635C35.5176 25.4027 34.1027 24.5855 33.745 24.2085C33.3415 23.7833 33.0647 22.6161 33.1616 21.7481C33.2483 20.9712 33.3423 20.6327 33.6415 20.0219C33.9689 19.3539 34.639 18.5723 35.0843 18.3392C35.3085 18.2217 35.3574 18.2134 35.8263 18.2139C36.4817 18.2145 37.253 18.3995 37.8726 18.7051L38.2917 18.9118L38.7503 18.911C39.3148 18.91 39.9187 18.8022 40.5949 18.5814C41.7967 18.1892 42.3746 17.7076 42.2376 17.212C42.0737 16.6178 40.7136 15.5652 39.7313 15.2718C38.9825 15.0483 38.0062 14.9918 37.0702 15.118ZM47.3712 15.1132C46.5622 15.2628 46.2045 15.4078 45.5134 15.866C44.488 16.5456 44.0071 17.196 44.2224 17.612C44.5401 18.2267 46.2788 18.8906 47.6112 18.906L48.1133 18.9118L48.5498 18.7058C49.1241 18.435 49.8944 18.2366 50.492 18.2058C51.0929 18.1749 51.3345 18.2589 51.7427 18.6406C53.035 19.8496 53.5612 21.5812 53.1368 23.228C52.935 24.0112 52.7868 24.2059 52.0052 24.7141C50.5814 25.6399 49.387 26.0827 47.615 26.3411C47.4848 26.3601 47.3725 26.3952 47.3652 26.4193C47.358 26.4432 47.7885 26.6055 48.3218 26.7798C49.9777 27.3206 51.4831 27.9704 52.3472 28.517L52.74 28.7656L53.1482 28.5527C54.3842 27.9082 55.3135 27.2015 55.819 26.5215C56.2713 25.913 56.9111 24.4839 57.1273 23.5982C57.3674 22.616 57.2456 20.7807 56.8661 19.6575C56.5646 18.7657 56.0277 18.0918 54.8132 17.0806C54.2483 16.6102 53.985 16.4476 53.3609 16.1836C52.478 15.8101 52.0321 15.6987 49.4393 15.2039C48.5429 15.0329 47.9471 15.0068 47.3712 15.1132ZM39.812 16.0594C39.9913 16.1537 40.0108 16.2329 39.8855 16.3583C39.7745 16.4694 39.345 16.4815 39.1969 16.3776C38.9746 16.222 39.1529 16.0091 39.5053 16.0091C39.6215 16.0091 39.7595 16.0317 39.812 16.0594ZM47.0341 16.077C47.2668 16.2399 47.0775 16.4456 46.6947 16.4456C46.3011 16.4456 46.1099 16.2233 46.3782 16.0778C46.5382 15.9909 46.9106 15.9906 47.0341 16.077ZM42.0148 19.0309L41.7711 19.9593L41.8299 22.7746C41.8622 24.323 41.8897 25.6734 41.891 25.7755L41.8934 25.961H43.1155H44.3376L44.3368 25.6009C44.3366 25.4027 44.3573 24.0328 44.3833 22.5564L44.4306 19.872L44.1952 18.9991L43.9597 18.126L43.1091 18.1142L42.2584 18.1024L42.0148 19.0309ZM79.7801 36.8076V46.5636L82.3009 46.5524L84.8214 46.5412V36.8076V27.074L82.3009 27.0628L79.7801 27.0514V36.8076ZM108.741 27.1067C108.674 27.3013 102.649 46.3633 102.626 46.4522L102.599 46.563H104.82H107.042L107.633 44.6315L108.224 42.7001H111.077H113.931L114.445 44.4023C114.728 45.3386 114.99 46.2077 115.027 46.3338L115.094 46.563H117.755C119.458 46.563 120.417 46.5476 120.417 46.5204C120.417 46.4826 114.698 28.0064 114.475 27.3249L114.386 27.0521H111.573C109.362 27.0521 108.756 27.0638 108.741 27.1067ZM127.296 27.1282C127.284 27.1704 125.907 31.526 124.236 36.8076C122.566 42.0889 121.189 46.4444 121.176 46.4866C121.154 46.5586 121.279 46.563 123.378 46.563H125.604L125.649 46.4211C125.674 46.3431 125.922 45.5328 126.2 44.6206C126.478 43.7083 126.726 42.8982 126.751 42.8202L126.796 42.6783H129.643H132.489L133.075 44.6206L133.66 46.563H136.332H139.004L138.963 46.4211C138.941 46.3431 137.582 41.958 135.942 36.6766L132.963 27.074L130.141 27.0628C127.481 27.0521 127.318 27.0559 127.296 27.1282ZM60.8803 36.8294V46.5636L63.3792 46.5524L65.8782 46.5412L65.8892 42.6674L65.9004 38.7935H68.5409H71.1813V42.6786V46.5636L73.6802 46.5524L76.1792 46.5412V36.8294V27.1176L73.6802 27.1064L71.1813 27.095V30.7619V34.4287H68.5409H65.9004L65.8892 30.7731L65.8782 27.1176L63.3792 27.1064L60.8803 27.095V36.8294ZM88.8261 36.8403L88.8371 46.5848H91.3905H93.944L93.9552 43.0883L93.9663 39.5918L96.0939 39.5658C98.2781 39.539 98.8176 39.5065 99.5747 39.3555C100.576 39.1556 101.652 38.5675 102.438 37.7899C103.211 37.0249 103.767 35.9276 104.057 34.5924C104.141 34.2076 104.154 34.0105 104.156 33.1848C104.158 32.1402 104.119 31.8586 103.877 31.1434C103.59 30.296 103.18 29.6678 102.415 28.9047C101.498 27.9892 100.729 27.5804 99.4225 27.3142C98.4158 27.1089 98.0713 27.0967 93.3001 27.0962L88.8151 27.0958L88.8261 36.8403ZM33.7281 29.9234C33.1211 30.5734 32.4299 31.7716 32.2498 32.4864C32.0304 33.3568 31.9464 34.9503 32.0912 35.498C32.1797 35.8333 32.4909 36.468 32.7753 36.8931C33.1963 37.5225 33.9671 38.2382 34.8006 38.7736C34.9445 38.8661 35.1162 38.9905 35.182 39.05C35.2478 39.1095 35.3133 39.1465 35.3275 39.1322C35.3418 39.118 35.4451 39.1519 35.557 39.2075C35.9204 39.3882 37.9669 40.0157 38.6198 40.1468C40.1806 40.46 41.497 40.5831 43.2843 40.5831C45.1741 40.5831 45.7467 40.645 46.7426 40.9571C47.3975 41.1625 47.6679 41.3321 48.2006 41.8726C48.9562 42.6393 49.0867 42.932 49.1025 43.8952L49.1115 44.4461L48.9505 44.7525C48.7175 45.1959 48.4571 45.473 48.094 45.6637C47.7603 45.8391 46.5654 46.3011 46.4455 46.3011C46.2954 46.3011 46.4631 46.3763 46.8256 46.4716C47.3894 46.6199 47.823 46.8556 48.6363 47.4561C49.0439 47.7571 49.391 48.0033 49.4075 48.0033C49.4238 48.0033 49.4438 47.9839 49.4519 47.96C49.4598 47.9362 49.587 47.8331 49.7345 47.7308C51.0426 46.8243 51.2964 46.5906 51.5415 46.0673C51.9756 45.1412 52.1286 43.9384 51.934 42.9838C51.8149 42.4003 51.5482 41.5982 51.3137 41.1179C50.8285 40.1248 49.7418 39.053 48.6807 38.5205C48.2934 38.3262 47.7233 38.1347 46.8911 37.9196C45.8884 37.6605 45.5757 37.6152 44.4904 37.5714C43.0086 37.5116 40.8036 37.3627 40.2698 37.2865C39.828 37.2234 39.5914 37.1602 38.4781 36.8077C37.8746 36.6167 36.7633 36.07 36.3747 35.773C36.0351 35.5134 35.7976 35.198 35.6254 34.7779C35.469 34.3961 35.4303 33.7661 35.542 33.42C35.7197 32.8692 36.1844 32.236 36.6893 31.8562C37.0421 31.5911 37.7651 31.216 38.2595 31.0417C38.4574 30.9721 38.6196 30.9051 38.6196 30.8932C38.6196 30.8812 38.3693 30.8247 38.0631 30.7678C36.9377 30.5582 35.1884 30.0636 34.3514 29.7185L34.0396 29.5899L33.7281 29.9234ZM41.9961 31.777C42.0113 32.2633 42.0344 33.4662 42.0472 34.4505C42.0601 35.4348 42.0814 36.3629 42.0946 36.5129L42.1185 36.7857H43.1189H44.1194L44.1236 36.3602C44.1258 36.1261 44.1505 34.8003 44.1781 33.4139L44.2285 30.8932H43.0985H41.9683L41.9961 31.777ZM97.3613 31.2238C98.3378 31.4231 98.9452 32.0422 99.0816 32.9771C99.2182 33.9149 98.7529 34.9013 98.0065 35.2559C97.4997 35.4967 97.2426 35.5266 95.4607 35.5511L93.8349 35.5736V33.3643V31.1551H95.4299C96.7088 31.1551 97.0915 31.1686 97.3613 31.2238ZM111.947 35.6013C112.404 37.2171 112.778 38.5473 112.778 38.5572C112.778 38.5672 112.015 38.5752 111.082 38.5752H109.385L110.231 35.6206C110.696 33.9955 111.076 32.6565 111.076 32.6452C111.076 32.5458 111.222 33.041 111.947 35.6013ZM130.517 35.6201C130.963 37.1996 131.328 38.5108 131.328 38.5337C131.328 38.5594 130.683 38.5752 129.643 38.5752C128.059 38.5752 127.959 38.5708 127.978 38.4989C128.304 37.2814 129.656 32.6605 129.676 32.697C129.692 32.7251 130.07 34.0406 130.517 35.6201ZM35.8458 39.9878C35.5914 40.1026 35.3173 40.5278 34.9819 41.3285C34.5771 42.2946 34.4719 42.6807 34.4239 43.3748C34.352 44.4131 34.446 45.1603 34.7158 45.6966C35.1593 46.5787 35.8742 47.3211 36.8464 47.909C37.6542 48.3976 39.3715 48.8945 40.6407 49.0069C41.2516 49.061 42.6209 49.0617 43.3094 49.0085C44.118 48.9459 44.8525 49.0659 45.7077 49.4001C46.2687 49.6196 46.6564 49.877 46.9274 50.2101C47.194 50.5382 47.2996 50.7453 47.502 51.3382C47.6552 51.7874 47.6634 51.8388 47.648 52.2548C47.6331 52.6539 47.6166 52.7265 47.474 53.0229C47.2671 53.4528 47.0737 53.6673 46.6286 53.9604C45.8362 54.4823 45.0081 54.8561 44.6446 54.8561C44.5478 54.8561 44.4685 54.8758 44.4685 54.8997C44.4685 54.9238 44.5093 54.9434 44.5593 54.9434C44.6657 54.9434 45.7685 55.2576 46.1081 55.3846C46.2368 55.4328 46.5295 55.6078 46.7583 55.7736C47.2263 56.1126 47.3494 56.1866 47.3494 56.1289C47.3494 56.1069 47.5704 55.9229 47.8404 55.7198C48.6904 55.0809 49.1958 54.5036 49.5708 53.7431C49.8819 53.1122 49.9687 52.8174 50.0227 52.2092C50.0628 51.7566 50.0589 51.6088 49.9964 51.2328C49.9052 50.6838 49.8087 50.4496 49.2771 49.4874C48.9411 48.8791 48.7975 48.6647 48.5709 48.4345C48.0978 47.954 47.0386 47.3193 46.1832 47.0039C45.4256 46.7247 44.2029 46.5483 43.0719 46.5555C42.2844 46.5604 41.6525 46.514 40.7803 46.3872C39.6568 46.2238 39.2214 46.1023 38.5761 45.7723C37.4631 45.2029 37.2202 44.6043 37.5286 43.1913C37.5757 42.9753 37.6609 42.6979 37.7178 42.5747C37.8857 42.2118 38.2057 41.8257 38.4894 41.6435C38.6314 41.5525 38.8979 41.3818 39.0816 41.2643C39.3106 41.1181 39.397 41.0408 39.3561 41.0193C39.3232 41.002 39.0235 40.9241 38.6899 40.8462C38.3383 40.764 37.8981 40.6244 37.6424 40.5136C37.3998 40.4085 37.1766 40.3223 37.1467 40.322C37.1167 40.3215 36.9198 40.2435 36.709 40.1488C36.2587 39.9459 36.0324 39.9038 35.8458 39.9878ZM42.1894 41.0523C42.1764 41.0812 42.2666 45.9569 42.2807 45.9845C42.2837 45.9906 42.6568 45.9956 43.1097 45.9956H43.933L43.9603 44.8715C43.9754 44.2533 44.0002 43.1339 44.0158 42.3835L44.0437 41.0196H43.1239C42.6181 41.0196 42.1974 41.0342 42.1894 41.0523ZM37.4735 48.8124C37.2932 48.9129 37.1524 49.1691 36.8681 49.9134C36.3351 51.3089 36.2839 51.8475 36.575 53.001C36.9705 54.5694 38.3697 55.8846 40.3179 56.519C41.0034 56.7423 41.4983 56.8387 42.4172 56.9278C43.8832 57.0703 44.2812 57.1247 44.6606 57.2348C45.715 57.5406 46.0403 57.8496 46.2189 58.7154C46.3266 59.2381 46.3259 60.0509 46.2163 61.0978C46.17 61.5419 46.0817 62.3866 46.0204 62.9746C45.7546 65.5218 45.5646 66.5974 45.2253 67.476C45.0439 67.9463 44.8581 68.1529 44.337 68.4636C44.0853 68.6137 43.8732 68.7549 43.8657 68.7775C43.8209 68.9116 44.6524 68.8812 44.98 68.737C45.583 68.4714 46.2876 67.3995 46.6017 66.2701C46.7402 65.7719 47.358 63.0023 47.6531 61.5561C47.9212 60.2422 47.9758 59.8073 47.9792 58.959C47.9822 58.2009 47.9812 58.1919 47.8336 57.7587C47.7186 57.4211 47.6275 57.2469 47.432 56.9894C47.1389 56.6034 46.6622 56.1574 46.411 56.034C46.315 55.9867 46.1775 55.9088 46.1054 55.8607C45.7708 55.6374 44.475 55.3195 43.2491 55.1601C42.5173 55.0649 41.6203 54.8669 41.1294 54.6921C39.7328 54.1948 38.8374 53.2195 38.8382 52.1965C38.8384 51.7508 38.9498 51.2255 39.1123 50.9031C39.3761 50.3798 39.9643 49.6115 40.1583 49.5368C40.206 49.5184 39.9262 49.4276 39.4163 49.2964C38.9663 49.1804 38.431 49.0191 38.227 48.938C37.7551 48.7501 37.6244 48.7284 37.4735 48.8124ZM42.3557 50.7204C42.3708 51.4227 42.3958 52.5766 42.411 53.2848L42.439 54.5724L43.0986 54.5844L43.7582 54.5965L43.7853 54.0606C43.8002 53.766 43.8252 52.6067 43.841 51.4843L43.8699 49.4438H43.0991H42.3284L42.3557 50.7204ZM64.4436 49.9258C62.6556 50.1258 61.3841 51.2435 60.8204 53.1102C60.5959 53.8539 60.553 54.2217 60.5533 55.4017C60.5536 56.3629 60.5654 56.5514 60.6528 56.9842C60.9116 58.2643 61.3717 59.1608 62.1437 59.889C62.9269 60.6279 63.9628 60.9688 65.2453 60.9098C66.7164 60.8421 67.8399 60.2103 68.4916 59.0841C68.7359 58.6617 68.999 57.7459 68.999 57.3175V57.1695H68.5415C68.1013 57.1695 68.0833 57.1732 68.0666 57.2677C67.9421 57.9668 67.8925 58.1444 67.7276 58.4789C67.3588 59.2278 66.6409 59.7718 65.7916 59.9458C65.2483 60.057 64.3777 60.0141 63.8964 59.8521C62.8957 59.5155 62.151 58.6744 61.8014 57.4861C61.5935 56.78 61.5573 56.4582 61.5589 55.3362C61.5604 54.3977 61.5726 54.2122 61.6579 53.8195C61.9292 52.5697 62.4621 51.7145 63.2633 51.2423C63.8242 50.9116 64.5274 50.761 65.2649 50.8131C66.1181 50.8735 66.6998 51.1163 67.2116 51.6255C67.5816 51.9938 67.7772 52.3413 67.8911 52.8333C67.9291 52.9975 67.9675 53.1566 67.9763 53.1866C67.9878 53.2258 68.1231 53.2412 68.4582 53.2412H68.9241L68.8963 52.9407C68.7827 51.7186 67.915 50.6276 66.71 50.1916C66.0523 49.9537 65.1457 49.8474 64.4436 49.9258ZM74.0621 49.9647C73.6305 50.0559 73.1931 50.223 72.8203 50.4391C72.4389 50.6604 71.7262 51.3905 71.4496 51.8436C70.2908 53.7425 70.2936 57.0673 71.4558 58.923C72.0579 59.8846 72.8795 60.5143 73.8784 60.7799C74.2442 60.8772 74.3947 60.8931 74.9787 60.8951C75.537 60.8971 75.723 60.8806 76.0419 60.801C76.8557 60.5977 77.4089 60.2798 77.9748 59.6904C78.7241 58.91 79.1432 58.0457 79.3773 56.7985C79.4833 56.2342 79.4812 54.5178 79.3739 53.951C78.9492 51.7083 77.6718 50.2681 75.821 49.9453C75.3183 49.8577 74.5276 49.8664 74.0621 49.9647ZM131.765 50.5568V51.0151H133.337H134.908V55.8163V60.6177H135.388H135.868V55.8163V51.0151H137.44H139.011V50.5568V50.0985H135.388H131.765V50.5568ZM81.6569 55.3799V60.6177H82.1369H82.6168L82.6279 56.2342L82.6391 51.8509L84.1469 56.2233L85.6546 60.5959H86.0434H86.432L87.962 56.1797L89.4919 51.7636L89.503 56.1906L89.514 60.6177H89.9941H90.4742L90.4632 55.3908L90.4521 50.164H89.7769H89.1018L87.5727 54.5829C86.7317 57.0132 86.0338 59.0018 86.0219 59.0018C86.0098 59.0018 85.3434 57.1115 84.541 54.8011C83.7386 52.4907 83.0436 50.4973 82.9964 50.3713L82.9107 50.1421H82.2838H81.6569V55.3799ZM93.0929 55.3799V60.6177H93.573H94.0531V58.348V56.0782H95.4115C97.2261 56.0782 97.8599 55.9807 98.6137 55.5857C98.9807 55.3933 99.4597 54.9063 99.6318 54.5506C100.096 53.5905 100.028 52.1644 99.478 51.3321C99.056 50.6938 98.3025 50.3046 97.2613 50.1871C97.0451 50.1628 96.0188 50.1427 94.9806 50.1424L93.0929 50.1421V55.3799ZM102.172 55.3784V60.6177H105.272H108.373L108.36 60.1703L108.348 59.723L105.74 59.7116L103.132 59.7004L103.121 54.9322L103.11 50.164L102.641 50.1515L102.172 50.1391V55.3784ZM109.941 55.3784V60.6177H110.421H110.902L110.891 55.3908L110.88 50.164L110.41 50.1515L109.941 50.1391V55.3784ZM116.1 50.2403C116.08 50.2943 115.214 52.6366 114.176 55.4453C113.138 58.2541 112.28 60.5669 112.269 60.585C112.258 60.6029 112.481 60.6174 112.765 60.617L113.28 60.6162L113.852 59.0348L114.425 57.4532H116.709H118.993L119.442 58.719C119.689 59.4152 119.942 60.1271 120.005 60.3013L120.12 60.6177H120.622C121.006 60.6177 121.12 60.6047 121.104 60.5632C121.093 60.5331 120.223 58.1761 119.169 55.3253L117.254 50.1421H116.696C116.156 50.1421 116.136 50.1456 116.1 50.2403ZM122.861 55.3785V60.6177H123.341H123.821L123.832 56.2722L123.843 51.9269L126.417 56.2722L128.99 60.6177H129.549H130.107L130.096 55.3908L130.085 50.164L129.616 50.1515L129.147 50.1391L129.136 54.5014L129.124 58.8635L126.546 54.5136L123.968 50.164L123.415 50.1517L122.861 50.1394V55.3785ZM75.8511 50.8642C77.2757 51.2028 78.2613 52.586 78.4752 54.5465C78.5767 55.4772 78.4613 56.7712 78.2107 57.5137C77.7793 58.7916 76.8473 59.7161 75.7585 59.9461C75.286 60.0461 74.3572 60.0116 73.9749 59.8801C72.7131 59.446 71.8611 58.2128 71.6159 56.4659C71.5496 55.9939 71.5489 54.8084 71.6147 54.3323C71.8876 52.3542 72.9466 51.045 74.4768 50.7938C74.7748 50.745 75.507 50.7825 75.8511 50.8642ZM97.5668 51.1186C98.4285 51.3611 98.8364 51.8231 98.9473 52.6821C99.0385 53.388 98.8754 54.0666 98.5197 54.4622C98.001 55.0392 97.4595 55.1612 95.4171 55.1615L94.0531 55.1616V53.0844V51.007L95.6789 51.026C97.0309 51.0417 97.349 51.0574 97.5668 51.1186ZM117.693 53.9575C118.207 55.3479 118.627 56.4919 118.627 56.5C118.627 56.5081 117.763 56.5148 116.707 56.5148C115.65 56.5148 114.786 56.5027 114.786 56.4881C114.786 56.4733 115.191 55.3389 115.687 53.9673C116.182 52.5956 116.608 51.4158 116.632 51.3454L116.677 51.2174L116.718 51.3236C116.74 51.382 117.179 52.5672 117.693 53.9575ZM39.0305 56.7003C38.6536 57.1117 38.5352 57.2982 38.3981 57.697C38.2702 58.0695 38.2552 58.1678 38.238 58.7481C38.2169 59.4587 38.2855 60.1564 38.4703 61.111C38.666 62.1216 39.494 65.8475 39.6301 66.3294C39.9344 67.4073 40.6463 68.4884 41.2188 68.7416C41.4433 68.8409 42.1768 68.9028 42.2808 68.8312C42.3698 68.7699 42.3252 68.7271 41.9372 68.5016C41.422 68.2022 41.2511 68.0306 41.0563 67.6162C40.7088 66.8771 40.4623 65.5463 40.1924 62.9528C40.1199 62.2567 40.0287 61.4023 39.9897 61.0542C39.8541 59.8464 39.9078 58.7536 40.1284 58.2254C40.2369 57.9656 40.5084 57.664 40.7366 57.5495L40.9549 57.4401L40.6712 57.3111C40.5151 57.2402 40.2997 57.1448 40.1922 57.0994C40.0849 57.054 39.8226 56.9136 39.6091 56.7876C39.3958 56.6614 39.2077 56.5585 39.1909 56.5585C39.1743 56.5585 39.1021 56.6223 39.0305 56.7003ZM42.5048 58.2279C42.5049 58.5701 42.5236 59.6748 42.5463 60.6832C42.5689 61.6914 42.5985 63.1253 42.6118 63.8695C42.6252 64.6138 42.6574 66.3246 42.6834 67.6716L42.7305 70.1205L42.6201 70.3383C42.4517 70.6707 42.3566 71.2139 42.3885 71.6622C42.4182 72.0831 42.5472 72.5526 42.6789 72.72C42.727 72.7812 42.7663 72.8567 42.7663 72.8877C42.7663 72.9706 43.0866 73.9306 43.114 73.9297C43.1414 73.929 43.4258 73.0167 43.423 72.9393C43.4219 72.9105 43.4707 72.8138 43.5312 72.7244C43.9221 72.1483 43.9391 70.8564 43.5638 70.2477C43.4898 70.1278 43.4904 69.911 43.5793 65.141C43.6303 62.4011 43.685 59.5849 43.7007 58.8826L43.7294 57.606H43.117H42.5045L42.5048 58.2279Z" fill="white"/>
</svg>
